<svg width="21" height="20" viewBox="0 0 21 20" fill="none" xmlns="http://www.w3.org/2000/svg">
<path fill-rule="evenodd" clip-rule="evenodd" d="M5.09792 1.58824C4.37956 1.58824 3.36885 1.76289 2.69792 1.89936C2.62077 1.91505 2.56366 1.97331 2.54828 2.052C2.41448 2.73635 2.24325 3.76727 2.24325 4.5C2.24325 5.23273 2.41448 6.26365 2.54828 6.948C2.56366 7.02669 2.62077 7.08495 2.69792 7.10064C3.36885 7.23711 4.37956 7.41177 5.09792 7.41177C5.81629 7.41177 6.827 7.23711 7.49793 7.10064C7.57508 7.08495 7.63219 7.02669 7.64757 6.948C7.78137 6.26365 7.9526 5.23273 7.9526 4.5C7.9526 3.76727 7.78137 2.73635 7.64757 2.052C7.63219 1.97331 7.57508 1.91505 7.49793 1.89936C6.827 1.76289 5.81629 1.58824 5.09792 1.58824ZM2.39341 0.341791C3.06584 0.205017 4.21063 0 5.09792 0C5.98522 0 7.13001 0.205017 7.80244 0.341791C8.49668 0.483001 9.03616 1.03328 9.1746 1.7414C9.3087 2.42728 9.50969 3.59496 9.50969 4.5C9.50969 5.40504 9.3087 6.57272 9.1746 7.2586C9.03616 7.96673 8.49668 8.517 7.80244 8.65821C7.13001 8.79498 5.98522 9 5.09792 9C4.21063 9 3.06584 8.79498 2.39341 8.65821C1.69917 8.517 1.15969 7.96672 1.02125 7.2586C0.887154 6.57272 0.686157 5.40504 0.686157 4.5C0.686157 3.59496 0.887154 2.42728 1.02125 1.7414C1.15969 1.03327 1.69917 0.483001 2.39341 0.341791Z" fill="#D9D9D9"/>
<path fill-rule="evenodd" clip-rule="evenodd" d="M5.09792 12.5882C4.37956 12.5882 3.36885 12.7629 2.69792 12.8994C2.62077 12.9151 2.56366 12.9733 2.54828 13.052C2.41448 13.7363 2.24325 14.7673 2.24325 15.5C2.24325 16.2327 2.41448 17.2637 2.54828 17.948C2.56366 18.0267 2.62077 18.0849 2.69792 18.1006C3.36885 18.2371 4.37956 18.4118 5.09792 18.4118C5.81629 18.4118 6.827 18.2371 7.49793 18.1006C7.57508 18.0849 7.63219 18.0267 7.64757 17.948C7.78137 17.2637 7.9526 16.2327 7.9526 15.5C7.9526 14.7673 7.78137 13.7363 7.64757 13.052C7.63219 12.9733 7.57508 12.9151 7.49793 12.8994C6.827 12.7629 5.81629 12.5882 5.09792 12.5882ZM2.39341 11.3418C3.06584 11.205 4.21063 11 5.09792 11C5.98522 11 7.13001 11.205 7.80244 11.3418C8.49668 11.483 9.03616 12.0333 9.1746 12.7414C9.3087 13.4273 9.50969 14.595 9.50969 15.5C9.50969 16.405 9.3087 17.5727 9.1746 18.2586C9.03616 18.9667 8.49668 19.517 7.80244 19.6582C7.13001 19.795 5.98522 20 5.09792 20C4.21063 20 3.06584 19.795 2.39341 19.6582C1.69917 19.517 1.15969 18.9667 1.02125 18.2586C0.887154 17.5727 0.686157 16.405 0.686157 15.5C0.686157 14.595 0.887154 13.4273 1.02125 12.7414C1.15969 12.0333 1.69917 11.483 2.39341 11.3418Z" fill="#D9D9D9"/>
<path fill-rule="evenodd" clip-rule="evenodd" d="M15.8822 1.58824C15.1639 1.58824 14.1532 1.76289 13.4822 1.89936C13.4051 1.91505 13.348 1.97331 13.3326 2.052C13.1988 2.73635 13.0276 3.76727 13.0276 4.5C13.0276 5.23273 13.1988 6.26365 13.3326 6.948C13.348 7.02669 13.4051 7.08495 13.4822 7.10064C14.1532 7.23711 15.1639 7.41177 15.8822 7.41177C16.6006 7.41177 17.6113 7.23711 18.2822 7.10064C18.3594 7.08495 18.4165 7.02669 18.4319 6.948C18.5657 6.26365 18.7369 5.23273 18.7369 4.5C18.7369 3.76727 18.5657 2.73635 18.4319 2.052C18.4165 1.97331 18.3594 1.91505 18.2822 1.89936C17.6113 1.76289 16.6006 1.58824 15.8822 1.58824ZM13.1777 0.341791C13.8502 0.205017 14.9949 0 15.8822 0C16.7695 0 17.9143 0.205017 18.5868 0.341791C19.281 0.483001 19.8205 1.03328 19.9589 1.7414C20.093 2.42728 20.294 3.59496 20.294 4.5C20.294 5.40504 20.093 6.57272 19.9589 7.2586C19.8205 7.96673 19.281 8.517 18.5868 8.65821C17.9143 8.79498 16.7695 9 15.8822 9C14.9949 9 13.8502 8.79498 13.1777 8.65821C12.4835 8.517 11.944 7.96672 11.8056 7.2586C11.6715 6.57272 11.4705 5.40504 11.4705 4.5C11.4705 3.59496 11.6715 2.42728 11.8056 1.7414C11.944 1.03327 12.4835 0.483001 13.1777 0.341791Z" fill="#D9D9D9"/>
<path fill-rule="evenodd" clip-rule="evenodd" d="M15.8822 12.5882C15.1639 12.5882 14.1532 12.7629 13.4822 12.8994C13.4051 12.9151 13.348 12.9733 13.3326 13.052C13.1988 13.7363 13.0276 14.7673 13.0276 15.5C13.0276 16.2327 13.1988 17.2637 13.3326 17.948C13.348 18.0267 13.4051 18.0849 13.4822 18.1006C14.1532 18.2371 15.1639 18.4118 15.8822 18.4118C16.6006 18.4118 17.6113 18.2371 18.2822 18.1006C18.3594 18.0849 18.4165 18.0267 18.4319 17.948C18.5657 17.2637 18.7369 16.2327 18.7369 15.5C18.7369 14.7673 18.5657 13.7363 18.4319 13.052C18.4165 12.9733 18.3594 12.9151 18.2822 12.8994C17.6113 12.7629 16.6006 12.5882 15.8822 12.5882ZM13.1777 11.3418C13.8502 11.205 14.9949 11 15.8822 11C16.7695 11 17.9143 11.205 18.5868 11.3418C19.281 11.483 19.8205 12.0333 19.9589 12.7414C20.093 13.4273 20.294 14.595 20.294 15.5C20.294 16.405 20.093 17.5727 19.9589 18.2586C19.8205 18.9667 19.281 19.517 18.5868 19.6582C17.9143 19.795 16.7695 20 15.8822 20C14.9949 20 13.8502 19.795 13.1777 19.6582C12.4835 19.517 11.944 18.9667 11.8056 18.2586C11.6715 17.5727 11.4705 16.405 11.4705 15.5C11.4705 14.595 11.6715 13.4273 11.8056 12.7414C11.944 12.0333 12.4835 11.483 13.1777 11.3418Z" fill="#D9D9D9"/>
</svg>
